<svg width="400" height="148" viewBox="0 0 400 148" fill="none" xmlns="http://www.w3.org/2000/svg">
<path d="M26.375 119V123H30.375V119H26.375ZM11.8125 119H7.8125V123H11.8125V119ZM14.3125 32.25L10.7262 30.4784L10.7218 30.4874L10.7174 30.4963L14.3125 32.25ZM21.5 24.375L19.5105 20.9049L19.5004 20.9107L19.4903 20.9165L21.5 24.375ZM36.375 22L35.7174 25.9456L35.7817 25.9563L35.8463 25.9649L36.375 22ZM39.9375 22.8125L43.9361 22.9177L44.0141 19.955L41.2024 19.0178L39.9375 22.8125ZM39.625 34.6875L38.5261 38.5336L43.4879 39.9512L43.6236 34.7927L39.625 34.6875ZM37.4375 34.3125L37.0395 38.2926L37.0489 38.2936L37.0583 38.2945L37.4375 34.3125ZM37.375 51.375H41.375V47.375H37.375V51.375ZM37.375 62.625V66.625H41.375V62.625H37.375ZM3.3125 62.625H-0.6875V66.625H3.3125V62.625ZM3.3125 51.375V47.375H-0.6875V51.375H3.3125ZM26.375 115H11.8125V123H26.375V115ZM15.8125 119V44.9375H7.8125V119H15.8125ZM15.8125 44.9375C15.8125 40.314 16.5796 36.7261 17.9076 34.0037L10.7174 30.4963C8.71209 34.6072 7.8125 39.4777 7.8125 44.9375H15.8125ZM17.8988 34.0216C19.2886 31.2081 21.1621 29.1976 23.5097 27.8335L19.4903 20.9165C15.6712 23.1357 12.7531 26.3752 10.7262 30.4784L17.8988 34.0216ZM23.4895 27.8451C25.9081 26.4585 28.8843 25.6875 32.5625 25.6875V17.6875C27.7407 17.6875 23.3419 18.7082 19.5105 20.9049L23.4895 27.8451ZM32.5625 25.6875C33.6381 25.6875 34.6889 25.7742 35.7174 25.9456L37.0326 18.0544C35.5611 17.8092 34.0702 17.6875 32.5625 17.6875V25.6875ZM35.8463 25.9649C36.8618 26.1003 37.8017 26.3169 38.6726 26.6072L41.2024 19.0178C39.8233 18.5581 38.3882 18.233 36.9037 18.0351L35.8463 25.9649ZM35.9389 22.7073L35.6264 34.5823L43.6236 34.7927L43.9361 22.9177L35.9389 22.7073ZM40.7239 30.8414C39.8265 30.585 38.8372 30.4277 37.8167 30.3305L37.0583 38.2945C37.7878 38.364 38.2568 38.4567 38.5261 38.5336L40.7239 30.8414ZM37.8355 30.3324C36.8775 30.2365 35.932 30.1875 35 30.1875V38.1875C35.6514 38.1875 36.3309 38.2218 37.0395 38.2926L37.8355 30.3324ZM35 30.1875C32.5476 30.1875 30.1976 30.7514 28.144 32.0763L32.481 38.7987C33.0107 38.4569 33.7857 38.1875 35 38.1875V30.1875ZM28.144 32.0763C26.0975 33.3966 24.6294 35.2756 23.6885 37.5103L31.0615 40.6147C31.454 39.6827 31.9441 39.1451 32.481 38.7987L28.144 32.0763ZM23.6885 37.5103C22.7551 39.727 22.375 42.2505 22.375 44.9375H30.375C30.375 42.9578 30.6616 41.5646 31.0615 40.6147L23.6885 37.5103ZM22.375 44.9375V119H30.375V44.9375H22.375ZM33.375 51.375V62.625H41.375V51.375H33.375ZM37.375 58.625H3.3125V66.625H37.375V58.625ZM7.3125 62.625V51.375H-0.6875V62.625H7.3125ZM3.3125 55.375H37.375V47.375H3.3125V55.375ZM50.37 118.312L48.9158 122.039L48.9356 122.047L48.9555 122.054L50.37 118.312ZM41.6825 112.438L38.7164 115.121L38.727 115.133L38.7378 115.145L41.6825 112.438ZM36.245 102.812L32.4421 104.053L32.4461 104.065L36.245 102.812ZM36.3075 68.25L32.4978 67.0309L32.494 67.0428L32.4903 67.0547L36.3075 68.25ZM50.0575 52.0625L48.5636 48.3519L48.5552 48.3553L48.5468 48.3588L50.0575 52.0625ZM79.245 58.375L76.0101 60.7277L76.0216 60.7436L76.0334 60.7594L79.245 58.375ZM83.745 68.5625L79.8529 69.4854L79.8574 69.5043L79.8621 69.5232L83.745 68.5625ZM85.245 89.8125V93.8125H89.245V89.8125H85.245ZM41.37 89.8125H37.37V93.8125H41.37V89.8125ZM41.37 78.8125V74.8125H37.37V78.8125H41.37ZM70.87 78.8125V82.8125H74.87V78.8125H70.87ZM70.87 77.25H74.87V77.196L74.8685 77.1419L70.87 77.25ZM69.745 69.3125L65.9098 70.4489L65.9127 70.4587L65.9157 70.4685L69.745 69.3125ZM66.495 64.1875L63.9429 67.2676L63.9905 67.307L64.0392 67.3449L66.495 64.1875ZM51.8075 66.875L48.3855 64.8038L48.3653 64.8371L48.3458 64.8709L51.8075 66.875ZM49.6825 73.25L53.6119 73.9985L53.614 73.9872L49.6825 73.25ZM49.8075 98.0625L45.9269 99.0326L45.935 99.0651L45.9437 99.0974L49.8075 98.0625ZM52.5575 103.812L49.4425 106.322L49.4598 106.343L49.4774 106.365L52.5575 103.812ZM56.9325 107.062L55.4004 110.757L55.4542 110.78L55.5085 110.8L56.9325 107.062ZM71.6825 106.188L73.5202 109.74L73.5316 109.734L73.543 109.728L71.6825 106.188ZM78.0575 101.188L81.3032 98.8497L78.3659 94.7717L75.051 98.5491L78.0575 101.188ZM84.495 110.125L87.7048 112.512L89.4517 110.163L87.7407 107.787L84.495 110.125ZM79.62 114.938L82.0304 118.13L82.051 118.114L82.0713 118.098L79.62 114.938ZM72.1825 118.75L70.8852 114.966L70.8768 114.969L70.8684 114.972L72.1825 118.75ZM62.0575 116.25C58.0726 116.25 54.6695 115.662 51.7845 114.571L48.9555 122.054C52.9038 123.547 57.2924 124.25 62.0575 124.25V116.25ZM51.8242 114.586C48.9491 113.464 46.5708 111.844 44.6272 109.73L38.7378 115.145C41.5442 118.197 44.9575 120.494 48.9158 122.039L51.8242 114.586ZM44.6486 109.754C42.6931 107.592 41.1415 104.89 40.0439 101.56L32.4461 104.065C33.8485 108.319 35.9219 112.033 38.7164 115.121L44.6486 109.754ZM40.0479 101.572C38.9564 98.2252 38.37 94.2213 38.37 89.5H30.37C30.37 94.862 31.0336 99.7331 32.4421 104.053L40.0479 101.572ZM38.37 89.5V83H30.37V89.5H38.37ZM38.37 83C38.37 77.5752 38.9859 73.0822 40.1247 69.4453L32.4903 67.0547C31.0458 71.6678 30.37 77.0081 30.37 83H38.37ZM40.1172 69.4691C41.3217 65.7049 42.919 62.8041 44.8178 60.634L38.7972 55.366C36.0294 58.5292 33.9599 62.4618 32.4978 67.0309L40.1172 69.4691ZM44.8178 60.634C46.7566 58.4183 48.9989 56.8142 51.5682 55.7662L48.5468 48.3588C44.7827 49.8941 41.5251 52.2484 38.7972 55.366L44.8178 60.634ZM51.5514 55.7731C54.2462 54.6881 57.2135 54.125 60.495 54.125V46.125C56.2765 46.125 52.2855 46.8535 48.5636 48.3519L51.5514 55.7731ZM60.495 54.125C64.3221 54.125 67.4374 54.7447 69.9465 55.8488L73.1685 48.5262C69.4276 46.8803 65.1679 46.125 60.495 46.125V54.125ZM69.9465 55.8488C72.4268 56.9401 74.4279 58.5522 76.0101 60.7277L82.4799 56.0223C80.0621 52.6978 76.9382 50.1849 73.1685 48.5262L69.9465 55.8488ZM76.0334 60.7594C77.6903 62.9911 78.9938 65.8622 79.8529 69.4854L87.6371 67.6396C86.5795 63.1795 84.8831 59.2589 82.4566 55.9906L76.0334 60.7594ZM79.8621 69.5232C80.7672 73.1814 81.245 77.4939 81.245 82.5H89.245C89.245 77.0061 88.7228 72.0269 87.6279 67.6018L79.8621 69.5232ZM81.245 82.5V89.8125H89.245V82.5H81.245ZM85.245 85.8125H41.37V93.8125H85.245V85.8125ZM45.37 89.8125V78.8125H37.37V89.8125H45.37ZM41.37 82.8125H70.87V74.8125H41.37V82.8125ZM74.87 78.8125V77.25H66.87V78.8125H74.87ZM74.8685 77.1419C74.7786 73.8147 74.3716 70.7973 73.5743 68.1565L65.9157 70.4685C66.4518 72.2443 66.7947 74.5187 66.8715 77.3581L74.8685 77.1419ZM73.5802 68.1761C72.7326 65.3157 71.2518 62.8198 68.9508 61.0301L64.0392 67.3449C64.7382 67.8886 65.424 68.8093 65.9098 70.4489L73.5802 68.1761ZM69.0471 61.1074C66.6478 59.1195 63.6093 58.375 60.4325 58.375V66.375C62.4223 66.375 63.4255 66.8388 63.9429 67.2676L69.0471 61.1074ZM60.4325 58.375C58.0467 58.375 55.767 58.8281 53.6849 59.8395L57.1801 67.0355C58.0147 66.6302 59.0683 66.375 60.4325 66.375V58.375ZM53.6849 59.8395C51.4385 60.9306 49.6851 62.6567 48.3855 64.8038L55.2295 68.9462C55.8466 67.9266 56.5098 67.3611 57.1801 67.0355L53.6849 59.8395ZM48.3458 64.8709C47.1203 66.9877 46.2982 69.5947 45.751 72.5128L53.614 73.9872C54.0668 71.572 54.6614 69.929 55.2692 68.8791L48.3458 64.8709ZM45.7531 72.5016C45.1904 75.4561 44.9325 78.9753 44.9325 83H52.9325C52.9325 79.2747 53.1746 76.2939 53.6119 73.9984L45.7531 72.5016ZM44.9325 83V89.5H52.9325V83H44.9325ZM44.9325 89.5C44.9325 93.0818 45.2396 96.2834 45.9269 99.0326L53.6881 97.0924C53.2087 95.1749 52.9325 92.6682 52.9325 89.5H44.9325ZM45.9437 99.0974C46.6774 101.837 47.8078 104.293 49.4425 106.322L55.6725 101.303C54.8906 100.332 54.1876 98.9551 53.6713 97.0276L45.9437 99.0974ZM49.4774 106.365C51.0907 108.312 53.0759 109.794 55.4004 110.757L58.4646 103.368C57.3724 102.915 56.441 102.23 55.6376 101.26L49.4774 106.365ZM55.5085 110.8C57.8024 111.674 60.3221 112.062 62.995 112.062V104.062C61.0845 104.062 59.5626 103.784 58.3565 103.325L55.5085 110.8ZM62.995 112.062C66.8585 112.062 70.4151 111.346 73.5202 109.74L69.8448 102.635C68.1166 103.529 65.8815 104.062 62.995 104.062V112.062ZM73.543 109.728C76.4255 108.214 78.9416 106.244 81.064 103.826L75.051 98.5491C73.5901 100.214 71.8561 101.578 69.822 102.647L73.543 109.728ZM74.8118 103.525L81.2493 112.463L87.7407 107.787L81.3032 98.8497L74.8118 103.525ZM81.2851 107.738C80.3434 109.005 78.9983 110.358 77.1687 111.777L82.0713 118.098C84.325 116.351 86.2299 114.495 87.7048 112.512L81.2851 107.738ZM77.2096 111.745C75.5664 112.986 73.4813 114.076 70.8852 114.966L73.4798 122.534C76.7171 121.424 79.5903 119.972 82.0304 118.13L77.2096 111.745ZM70.8684 114.972C68.5134 115.791 65.6015 116.25 62.0575 116.25V124.25C66.2635 124.25 70.1016 123.709 73.4966 122.528L70.8684 114.972ZM100.24 118.312L98.7858 122.039L98.8056 122.047L98.8255 122.054L100.24 118.312ZM91.5525 112.438L88.5864 115.121L88.597 115.133L88.6078 115.145L91.5525 112.438ZM86.115 102.812L82.3121 104.053L82.3161 104.065L86.115 102.812ZM86.1775 68.25L82.3678 67.0309L82.364 67.0428L82.3603 67.0547L86.1775 68.25ZM99.9275 52.0625L98.4336 48.3519L98.4252 48.3553L98.4168 48.3588L99.9275 52.0625ZM129.115 58.375L125.88 60.7277L125.892 60.7436L125.903 60.7594L129.115 58.375ZM133.615 68.5625L129.723 69.4854L129.727 69.5043L129.732 69.5232L133.615 68.5625ZM135.115 89.8125V93.8125H139.115V89.8125H135.115ZM91.24 89.8125H87.24V93.8125H91.24V89.8125ZM91.24 78.8125V74.8125H87.24V78.8125H91.24ZM120.74 78.8125V82.8125H124.74V78.8125H120.74ZM120.74 77.25H124.74V77.196L124.739 77.1419L120.74 77.25ZM119.615 69.3125L115.78 70.4489L115.783 70.4587L115.786 70.4685L119.615 69.3125ZM116.365 64.1875L113.813 67.2676L113.86 67.307L113.909 67.3449L116.365 64.1875ZM101.677 66.875L98.2555 64.8038L98.2353 64.8371L98.2158 64.8709L101.677 66.875ZM99.5525 73.25L103.482 73.9985L103.484 73.9872L99.5525 73.25ZM99.6775 98.0625L95.7969 99.0326L95.805 99.0651L95.8137 99.0974L99.6775 98.0625ZM102.427 103.812L99.3125 106.322L99.3298 106.343L99.3474 106.365L102.427 103.812ZM106.802 107.062L105.27 110.757L105.324 110.78L105.379 110.8L106.802 107.062ZM121.552 106.188L123.39 109.74L123.402 109.734L123.413 109.728L121.552 106.188ZM127.927 101.188L131.173 98.8497L128.236 94.7717L124.921 98.5491L127.927 101.188ZM134.365 110.125L137.575 112.512L139.322 110.163L137.611 107.787L134.365 110.125ZM129.49 114.938L131.9 118.13L131.921 118.114L131.941 118.098L129.49 114.938ZM122.052 118.75L120.755 114.966L120.747 114.969L120.738 114.972L122.052 118.75ZM111.927 116.25C107.943 116.25 104.54 115.662 101.654 114.571L98.8255 122.054C102.774 123.547 107.162 124.25 111.927 124.25V116.25ZM101.694 114.586C98.8191 113.464 96.4408 111.844 94.4972 109.73L88.6078 115.145C91.4142 118.197 94.8275 120.494 98.7858 122.039L101.694 114.586ZM94.5186 109.754C92.5631 107.592 91.0115 104.89 89.9139 101.56L82.3161 104.065C83.7185 108.319 85.7919 112.033 88.5864 115.121L94.5186 109.754ZM89.9179 101.572C88.8264 98.2252 88.24 94.2213 88.24 89.5H80.24C80.24 94.862 80.9036 99.7331 82.3121 104.053L89.9179 101.572ZM88.24 89.5V83H80.24V89.5H88.24ZM88.24 83C88.24 77.5752 88.8559 73.0822 89.9947 69.4453L82.3603 67.0547C80.9158 71.6678 80.24 77.0081 80.24 83H88.24ZM89.9872 69.4691C91.1917 65.7049 92.789 62.8041 94.6878 60.634L88.6672 55.366C85.8994 58.5292 83.8299 62.4618 82.3678 67.0309L89.9872 69.4691ZM94.6878 60.634C96.6266 58.4183 98.8689 56.8142 101.438 55.7662L98.4168 48.3588C94.6527 49.8941 91.3951 52.2484 88.6672 55.366L94.6878 60.634ZM101.421 55.7731C104.116 54.6881 107.083 54.125 110.365 54.125V46.125C106.147 46.125 102.155 46.8535 98.4336 48.3519L101.421 55.7731ZM110.365 54.125C114.192 54.125 117.307 54.7447 119.817 55.8488L123.038 48.5262C119.298 46.8803 115.038 46.125 110.365 46.125V54.125ZM119.817 55.8488C122.297 56.9401 124.298 58.5522 125.88 60.7277L132.35 56.0223C129.932 52.6978 126.808 50.1849 123.038 48.5262L119.817 55.8488ZM125.903 60.7594C127.56 62.9911 128.864 65.8622 129.723 69.4854L137.507 67.6396C136.45 63.1795 134.753 59.2589 132.327 55.9906L125.903 60.7594ZM129.732 69.5232C130.637 73.1814 131.115 77.4939 131.115 82.5H139.115C139.115 77.0061 138.593 72.0269 137.498 67.6018L129.732 69.5232ZM131.115 82.5V89.8125H139.115V82.5H131.115ZM135.115 85.8125H91.24V93.8125H135.115V85.8125ZM95.24 89.8125V78.8125H87.24V89.8125H95.24ZM91.24 82.8125H120.74V74.8125H91.24V82.8125ZM124.74 78.8125V77.25H116.74V78.8125H124.74ZM124.739 77.1419C124.649 73.8147 124.242 70.7973 123.444 68.1565L115.786 70.4685C116.322 72.2443 116.665 74.5187 116.741 77.3581L124.739 77.1419ZM123.45 68.1761C122.603 65.3157 121.122 62.8198 118.821 61.0301L113.909 67.3449C114.608 67.8886 115.294 68.8093 115.78 70.4489L123.45 68.1761ZM118.917 61.1074C116.518 59.1195 113.479 58.375 110.302 58.375V66.375C112.292 66.375 113.295 66.8388 113.813 67.2676L118.917 61.1074ZM110.302 58.375C107.917 58.375 105.637 58.8281 103.555 59.8395L107.05 67.0355C107.885 66.6302 108.938 66.375 110.302 66.375V58.375ZM103.555 59.8395C101.309 60.9306 99.5551 62.6567 98.2555 64.8038L105.099 68.9462C105.717 67.9266 106.38 67.3611 107.05 67.0355L103.555 59.8395ZM98.2158 64.8709C96.9903 66.9877 96.1682 69.5947 95.621 72.5128L103.484 73.9872C103.937 71.572 104.531 69.929 105.139 68.8791L98.2158 64.8709ZM95.6231 72.5016C95.0604 75.4561 94.8025 78.9753 94.8025 83H102.802C102.802 79.2747 103.045 76.2939 103.482 73.9984L95.6231 72.5016ZM94.8025 83V89.5H102.802V83H94.8025ZM94.8025 89.5C94.8025 93.0818 95.1096 96.2834 95.7969 99.0326L103.558 97.0924C103.079 95.1749 102.802 92.6682 102.802 89.5H94.8025ZM95.8137 99.0974C96.5474 101.837 97.6778 104.293 99.3125 106.322L105.543 101.303C104.761 100.332 104.058 98.9551 103.541 97.0276L95.8137 99.0974ZM99.3474 106.365C100.961 108.312 102.946 109.794 105.27 110.757L108.335 103.368C107.242 102.915 106.311 102.23 105.508 101.26L99.3474 106.365ZM105.379 110.8C107.672 111.674 110.192 112.062 112.865 112.062V104.062C110.955 104.062 109.433 103.784 108.226 103.325L105.379 110.8ZM112.865 112.062C116.729 112.062 120.285 111.346 123.39 109.74L119.715 102.635C117.987 103.529 115.751 104.062 112.865 104.062V112.062ZM123.413 109.728C126.296 108.214 128.812 106.244 130.934 103.826L124.921 98.5491C123.46 100.214 121.726 101.578 119.692 102.647L123.413 109.728ZM124.682 103.525L131.119 112.463L137.611 107.787L131.173 98.8497L124.682 103.525ZM131.155 107.738C130.213 109.005 128.868 110.358 127.039 111.777L131.941 118.098C134.195 116.351 136.1 114.495 137.575 112.512L131.155 107.738ZM127.08 111.745C125.436 112.986 123.351 114.076 120.755 114.966L123.35 122.534C126.587 121.424 129.46 119.972 131.9 118.13L127.08 111.745ZM120.738 114.972C118.383 115.791 115.471 116.25 111.927 116.25V124.25C116.134 124.25 119.972 123.709 123.367 122.528L120.738 114.972ZM169.923 104.875H165.923V105.068L165.941 105.261L169.923 104.875ZM169.923 23V19H165.923V23H169.923ZM184.485 23H188.485V19H184.485V23ZM184.485 119L184.504 123L188.485 122.981V119H184.485ZM171.298 119.062L167.316 119.448L167.668 123.08L171.316 123.062L171.298 119.062ZM135.11 68.25L138.993 69.2107L138.995 69.2015L135.11 68.25ZM139.485 58.0625L136.244 55.7187L136.232 55.7352L136.22 55.7518L139.485 58.0625ZM164.61 52.4375L162.485 55.8263L162.506 55.8393L162.527 55.8521L164.61 52.4375ZM174.923 68.875L171.049 69.8745L171.056 69.8993L171.062 69.9239L174.923 68.875ZM177.048 81.75H181.048V81.5924L181.035 81.4352L177.048 81.75ZM177.048 89.125L181.028 89.523L181.048 89.3245V89.125H177.048ZM174.86 101.75L178.728 102.77L178.73 102.76L174.86 101.75ZM164.485 118L166.568 121.415L166.577 121.41L166.585 121.405L164.485 118ZM146.485 118.188L144.674 121.754L144.685 121.76L144.696 121.765L146.485 118.188ZM139.485 112.062L136.22 114.373L136.232 114.39L136.244 114.406L139.485 112.062ZM135.11 102L131.227 102.961L131.229 102.97L135.11 102ZM150.798 103.062L147.314 105.028L147.325 105.047L147.336 105.067L150.798 103.062ZM154.423 106.625L152.555 110.163L152.594 110.183L152.634 110.203L154.423 106.625ZM166.36 105.75L163.899 102.597L163.88 102.612L163.861 102.627L166.36 105.75ZM170.298 100.375L166.607 98.8318L166.6 98.8488L166.593 98.8658L170.298 100.375ZM172.298 92.75L176.262 93.2825L176.298 93.0175V92.75H172.298ZM172.298 78.1875H176.298V77.9992L176.28 77.8118L172.298 78.1875ZM171.048 72.0625L167.245 73.3026L167.249 73.315L167.253 73.3274L171.048 72.0625ZM164.923 63.75L162.894 67.1977L162.954 67.2326L163.014 67.2654L164.923 63.75ZM154.485 63.75L156.352 67.2875L156.39 67.2675L156.428 67.2466L154.485 63.75ZM150.86 67.4375L154.344 69.4028L154.354 69.384L154.365 69.3652L150.86 67.4375ZM148.798 73.6875L144.861 72.9776L144.856 73.0037L144.852 73.0299L148.798 73.6875ZM173.923 104.875V23H165.923V104.875H173.923ZM169.923 27H184.485V19H169.923V27ZM180.485 23V119H188.485V23H180.485ZM184.466 115L171.279 115.063L171.316 123.062L184.504 123L184.466 115ZM175.279 118.677L173.904 104.489L165.941 105.261L167.316 119.448L175.279 118.677ZM137.61 87.9375V82.625H129.61V87.9375H137.61ZM137.61 82.625C137.61 77.3076 138.091 72.8542 138.993 69.2107L131.227 67.2893C130.129 71.7291 129.61 76.8591 129.61 82.625H137.61ZM138.995 69.2015C139.906 65.4811 141.19 62.578 142.75 60.3732L136.22 55.7518C133.947 58.9636 132.314 62.8522 131.225 67.2985L138.995 69.2015ZM142.726 60.4063C144.328 58.191 146.171 56.6584 148.248 55.683L144.847 48.442C141.424 50.0499 138.558 52.5174 136.244 55.7187L142.726 60.4063ZM148.248 55.683C150.397 54.6737 152.908 54.125 155.86 54.125V46.125C151.895 46.125 148.198 46.868 144.847 48.442L148.248 55.683ZM155.86 54.125C158.608 54.125 160.761 54.7455 162.485 55.8263L166.735 49.0487C163.542 47.0462 159.862 46.125 155.86 46.125V54.125ZM162.527 55.8521C164.373 56.9788 166.026 58.6381 167.448 60.9629L174.272 56.7871C172.278 53.5286 169.763 50.8962 166.693 49.0229L162.527 55.8521ZM167.448 60.9629C168.91 63.3512 170.127 66.3011 171.049 69.8745L178.796 67.8755C177.718 63.6989 176.227 59.9822 174.272 56.7871L167.448 60.9629ZM171.062 69.9239C172.027 73.4752 172.701 77.5156 173.06 82.0648L181.035 81.4352C180.644 76.4844 179.901 71.9415 178.783 67.8261L171.062 69.9239ZM173.048 81.75V89.125H181.048V81.75H173.048ZM173.067 88.727C172.626 93.1363 171.93 97.1369 170.99 100.74L178.73 102.76C179.79 98.6964 180.552 94.2804 181.028 89.523L173.067 88.727ZM170.992 100.73C170.073 104.215 168.859 107.102 167.4 109.452L174.195 113.673C176.153 110.523 177.647 106.868 178.728 102.77L170.992 100.73ZM167.4 109.452C165.984 111.73 164.306 113.411 162.385 114.595L166.585 121.405C169.664 119.506 172.194 116.895 174.195 113.673L167.4 109.452ZM162.402 114.585C160.664 115.646 158.513 116.25 155.798 116.25V124.25C159.748 124.25 163.389 123.354 166.568 121.415L162.402 114.585ZM155.798 116.25C152.882 116.25 150.402 115.674 148.274 114.61L144.696 121.765C148.068 123.451 151.796 124.25 155.798 124.25V116.25ZM148.296 114.621C146.21 113.562 144.35 111.964 142.726 109.719L136.244 114.406C138.537 117.578 141.343 120.063 144.674 121.754L148.296 114.621ZM142.75 109.752C141.18 107.533 139.898 104.661 138.991 101.03L131.229 102.97C132.322 107.339 133.957 111.175 136.22 114.373L142.75 109.752ZM138.993 101.039C138.089 97.3854 137.61 93.0326 137.61 87.9375H129.61C129.61 93.509 130.131 98.5313 131.227 102.961L138.993 101.039ZM144.173 82.625V87.9375H152.173V82.625H144.173ZM144.173 87.9375C144.173 91.5426 144.389 94.7531 144.852 97.5326L152.743 96.2174C152.373 93.9969 152.173 91.249 152.173 87.9375H144.173ZM144.852 97.5326C145.32 100.338 146.102 102.881 147.314 105.028L154.281 101.097C153.659 99.9945 153.109 98.4117 152.743 96.2174L144.852 97.5326ZM147.336 105.067C148.598 107.248 150.338 108.992 152.555 110.163L156.29 103.087C155.507 102.675 154.83 102.044 154.259 101.058L147.336 105.067ZM152.634 110.203C154.817 111.295 157.275 111.75 159.86 111.75V103.75C158.195 103.75 157.028 103.455 156.211 103.047L152.634 110.203ZM159.86 111.75C163.203 111.75 166.321 110.904 168.859 108.873L163.861 102.627C163.066 103.263 161.85 103.75 159.86 103.75V111.75ZM168.821 108.903C171.145 107.09 172.854 104.701 174.002 101.884L166.593 98.8658C165.908 100.549 164.992 101.744 163.899 102.597L168.821 108.903ZM173.988 101.918C175.098 99.2633 175.846 96.3761 176.262 93.2825L168.333 92.2175C167.999 94.7073 167.414 96.9034 166.607 98.8318L173.988 101.918ZM176.298 92.75V78.1875H168.298V92.75H176.298ZM176.28 77.8118C176.046 75.3371 175.574 72.9935 174.842 70.7976L167.253 73.3274C167.771 74.8815 168.132 76.6212 168.315 78.5632L176.28 77.8118ZM174.85 70.8224C174.121 68.5858 173.143 66.5473 171.878 64.7558L165.342 69.3692C166.077 70.411 166.724 71.7059 167.245 73.3026L174.85 70.8224ZM171.878 64.7558C170.54 62.8604 168.854 61.3327 166.831 60.2346L163.014 67.2654C163.908 67.7507 164.68 68.4313 165.342 69.3692L171.878 64.7558ZM166.951 60.3023C164.824 59.0511 162.432 58.5 159.923 58.5V66.5C161.246 66.5 162.188 66.7823 162.894 67.1977L166.951 60.3023ZM159.923 58.5C157.278 58.5 154.762 59.02 152.542 60.2534L156.428 67.2466C157.208 66.8133 158.317 66.5 159.923 66.5V58.5ZM152.618 60.2125C150.344 61.4124 148.601 63.2441 147.355 65.5098L154.365 69.3652C154.952 68.2976 155.626 67.6709 156.352 67.2875L152.618 60.2125ZM147.376 65.4722C146.173 67.6055 145.371 70.1519 144.861 72.9776L152.734 74.3974C153.141 72.1398 153.714 70.5195 154.344 69.4028L147.376 65.4722ZM144.852 73.0299C144.389 75.8094 144.173 79.0199 144.173 82.625H152.173C152.173 79.3135 152.373 76.5656 152.743 74.3451L144.852 73.0299ZM188.605 23V19H184.605V23H188.605ZM203.105 23H207.105V19H203.105V23ZM203.105 104.5L207.093 104.809L207.105 104.655V104.5H203.105ZM201.98 119V123H205.682L205.968 119.309L201.98 119ZM188.605 119H184.605V123H188.605V119ZM234.042 112.188L237.355 114.43L234.042 112.188ZM208.667 118L206.542 121.389L206.576 121.41L206.61 121.43L208.667 118ZM202.417 111.562L198.983 113.613L199.001 113.643L199.02 113.673L202.417 111.562ZM198.417 101.625L194.537 102.595L194.542 102.615L194.547 102.635L198.417 101.625ZM196.292 88.9375H192.292V89.1352L192.312 89.332L196.292 88.9375ZM196.292 81.5L192.309 81.1411L192.292 81.3202V81.5H196.292ZM198.355 68.8125L194.482 67.813L194.478 67.8277L194.474 67.8424L198.355 68.8125ZM202.355 58.875L205.776 60.9482L205.783 60.9368L205.789 60.9254L202.355 58.875ZM208.605 52.4375L210.663 55.8675L210.684 55.855L210.705 55.8422L208.605 52.4375ZM234.042 58.1875L230.73 60.4298L230.738 60.4417L230.746 60.4536L234.042 58.1875ZM238.167 68.3125L234.265 69.1887L234.267 69.1972L238.167 68.3125ZM224.417 73.6875L220.453 74.2162L220.457 74.2485L220.462 74.2809L224.417 73.6875ZM222.605 67.5L219.027 69.2889L219.054 69.343L219.083 69.3964L222.605 67.5ZM208.23 63.6875L206.322 60.1721L206.3 60.1838L206.279 60.1957L208.23 63.6875ZM204.605 67.0625L207.873 69.3692L207.889 69.347L207.904 69.3246L204.605 67.0625ZM202.23 72L206.042 73.2128L206.046 73.2006L206.049 73.1883L202.23 72ZM201.042 77.9375L197.062 77.5472L197.042 77.7419V77.9375H201.042ZM201.042 92.5H197.042V92.7084L197.064 92.9156L201.042 92.5ZM202.792 100.188L199.047 101.592L199.058 101.621L199.069 101.65L202.792 100.188ZM206.73 105.75L204.222 108.866L204.24 108.881L204.259 108.895L206.73 105.75ZM222.542 103.125L219.059 101.16L219.039 101.194L219.021 101.229L222.542 103.125ZM224.417 96.9375L220.46 96.3537L220.456 96.3812L220.453 96.4088L224.417 96.9375ZM188.605 27H203.105V19H188.605V27ZM199.105 23V104.5H207.105V23H199.105ZM199.117 104.191L197.992 118.691L205.968 119.309L207.093 104.809L199.117 104.191ZM201.98 115H188.605V123H201.98V115ZM192.605 119V23H184.605V119H192.605ZM235.542 82.5625V87.875H243.542V82.5625H235.542ZM235.542 87.875C235.542 93.0793 235.101 97.4992 234.267 101.178L242.068 102.947C243.067 98.5425 243.542 93.5041 243.542 87.875H235.542ZM234.267 101.178C233.432 104.859 232.221 107.743 230.73 109.945L237.355 114.43C239.531 111.216 241.07 107.35 242.068 102.947L234.267 101.178ZM230.73 109.945C229.262 112.114 227.495 113.646 225.422 114.651L228.913 121.849C232.34 120.188 235.156 117.678 237.355 114.43L230.73 109.945ZM225.422 114.651C223.314 115.673 220.724 116.25 217.542 116.25V124.25C221.694 124.25 225.521 123.494 228.913 121.849L225.422 114.651ZM217.542 116.25C214.725 116.25 212.504 115.637 210.725 114.57L206.61 121.43C209.831 123.363 213.527 124.25 217.542 124.25V116.25ZM210.793 114.611C208.907 113.429 207.24 111.745 205.815 109.452L199.02 113.673C201.012 116.88 203.511 119.488 206.542 121.389L210.793 114.611ZM205.852 109.512C204.416 107.107 203.213 104.16 202.288 100.615L194.547 102.635C195.622 106.757 197.086 110.435 198.983 113.613L205.852 109.512ZM202.298 100.655C201.394 97.0402 200.715 93.0068 200.273 88.543L192.312 89.332C192.786 94.1182 193.524 98.5431 194.537 102.595L202.298 100.655ZM200.292 88.9375V81.5H192.292V88.9375H200.292ZM200.276 81.8589C200.678 77.4053 201.335 73.384 202.236 69.7826L194.474 67.8424C193.458 71.9076 192.741 76.3447 192.309 81.1411L200.276 81.8589ZM202.228 69.812C203.153 66.2268 204.354 63.2944 205.776 60.9482L198.934 56.8018C197.023 59.9556 195.557 63.6482 194.482 67.813L202.228 69.812ZM205.789 60.9254C207.158 58.6337 208.791 56.9905 210.663 55.8675L206.547 49.0075C203.419 50.8845 200.886 53.5329 198.921 56.8246L205.789 60.9254ZM210.705 55.8422C212.476 54.7496 214.682 54.125 217.48 54.125V46.125C213.445 46.125 209.734 47.042 206.505 49.0328L210.705 55.8422ZM217.48 54.125C220.711 54.125 223.32 54.7049 225.422 55.7243L228.913 48.5257C225.515 46.8784 221.666 46.125 217.48 46.125V54.125ZM225.422 55.7243C227.495 56.7293 229.262 58.2614 230.73 60.4298L237.355 55.9452C235.156 52.697 232.34 50.1873 228.913 48.5257L225.422 55.7243ZM230.746 60.4536C232.22 62.5965 233.428 65.4639 234.265 69.1887L242.07 67.4363C241.073 62.9944 239.532 59.1119 237.339 55.9214L230.746 60.4536ZM234.267 69.1972C235.1 72.8739 235.542 77.314 235.542 82.5625H243.542C243.542 76.8943 243.068 71.8344 242.068 67.4278L234.267 69.1972ZM228.98 87.875V82.5625H220.98V87.875H228.98ZM228.98 82.5625C228.98 79.0113 228.786 75.8451 228.373 73.0941L220.462 74.2809C220.799 76.5299 220.98 79.2804 220.98 82.5625H228.98ZM228.382 73.1588C228.007 70.3437 227.298 67.7786 226.127 65.6036L219.083 69.3964C219.662 70.4714 220.161 72.0313 220.453 74.2162L228.382 73.1588ZM226.183 65.7111C225.021 63.3884 223.313 61.512 221.048 60.2534L217.162 67.2466C217.897 67.6546 218.522 68.2783 219.027 69.2889L226.183 65.7111ZM221.048 60.2534C218.787 58.9975 216.169 58.5 213.417 58.5V66.5C215.249 66.5 216.423 66.8358 217.162 67.2466L221.048 60.2534ZM213.417 58.5C210.887 58.5 208.475 59.0033 206.322 60.1721L210.138 67.2029C210.902 66.7884 211.948 66.5 213.417 66.5V58.5ZM206.279 60.1957C204.277 61.3143 202.623 62.8802 201.306 64.8004L207.904 69.3246C208.587 68.3282 209.35 67.6441 210.181 67.1793L206.279 60.1957ZM201.337 64.7558C200.066 66.556 199.102 68.5895 198.411 70.8117L206.049 73.1883C206.525 71.6605 207.144 70.4023 207.873 69.3692L201.337 64.7558ZM198.418 70.7872C197.741 72.9153 197.294 75.1729 197.062 77.5472L205.023 78.3278C205.207 76.4521 205.552 74.7513 206.042 73.2128L198.418 70.7872ZM197.042 77.9375V92.5H205.042V77.9375H197.042ZM197.064 92.9156C197.387 96.0036 198.039 98.9031 199.047 101.592L206.538 98.783C205.796 96.8052 205.282 94.5797 205.021 92.0844L197.064 92.9156ZM199.069 101.65C200.204 104.537 201.898 106.996 204.222 108.866L209.238 102.634C208.145 101.754 207.215 100.505 206.516 98.7249L199.069 101.65ZM204.259 108.895C206.877 110.952 210.087 111.812 213.542 111.812V103.812C211.415 103.812 210.083 103.298 209.201 102.605L204.259 108.895ZM213.542 111.812C216.177 111.812 218.686 111.369 220.872 110.245L217.213 103.13C216.482 103.506 215.325 103.812 213.542 103.812V111.812ZM220.872 110.245C223.138 109.079 224.856 107.266 226.064 105.021L219.021 101.229C218.479 102.234 217.864 102.796 217.213 103.13L220.872 110.245ZM226.026 105.09C227.265 102.895 228.004 100.304 228.382 97.4662L220.453 96.4088C220.164 98.5706 219.654 100.105 219.059 101.16L226.026 105.09ZM228.375 97.5213C228.786 94.7314 228.98 91.5056 228.98 87.875H220.98C220.98 91.2444 220.799 94.0603 220.46 96.3537L228.375 97.5213ZM271.288 65.9375L267.628 67.5521L267.647 67.5966L267.668 67.6407L271.288 65.9375ZM268.475 62.875L266.543 66.3773L266.614 66.4165L266.686 66.4527L268.475 62.875ZM259.038 63.0625L256.995 59.6231L256.971 59.6374L256.947 59.6521L259.038 63.0625ZM256.1 66.3125L259.678 68.1014L259.689 68.0795L259.699 68.0576L256.1 66.3125ZM255.1 70.9375V74.9375H259.1V70.9375H255.1ZM240.538 70.9375H236.538V74.9375H240.538V70.9375ZM242.163 63.125L238.515 61.4835L238.503 61.509L238.492 61.5346L242.163 63.125ZM246.975 56.4375L244.235 53.523L246.975 56.4375ZM275.975 52.3125L274.388 55.9844L274.408 55.9927L274.427 56.0008L275.975 52.3125ZM283.913 59.25L280.479 61.3014L280.494 61.3278L280.51 61.3539L283.913 59.25ZM287.413 111.688L283.458 112.291L283.464 112.329L283.471 112.367L287.413 111.688ZM289.1 118H293.1V117.238L292.82 116.529L289.1 118ZM289.1 119V123H293.1V119H289.1ZM274.288 119L270.587 120.518L271.605 123H274.288V119ZM274.225 77.8125L278.225 77.786L278.199 73.8125H274.225V77.8125ZM274.288 87.25V91.25H278.314L278.287 87.2235L274.288 87.25ZM261.663 88.125L262.899 91.9291L262.942 91.9153L262.984 91.9004L261.663 88.125ZM257.413 90.5L260.07 93.4896L260.077 93.4838L257.413 90.5ZM254.788 94.1875L251.111 92.6118L251.092 92.6567L251.074 92.7019L254.788 94.1875ZM254.788 104.188L251.123 105.791L251.144 105.838L251.166 105.885L254.788 104.188ZM257.475 107.188L255.49 110.66L255.563 110.702L255.637 110.74L257.475 107.188ZM267.913 106.625L269.933 110.077L269.946 110.07L269.958 110.062L267.913 106.625ZM271.913 102.875L268.57 100.678L268.547 100.712L268.526 100.746L271.913 102.875ZM273.038 98.875L276.548 96.9571L269.096 99.5546L273.038 98.875ZM276.35 104.938L280.264 105.762L280.569 104.316L279.86 103.02L276.35 104.938ZM274.475 109.938L270.932 108.081L270.914 108.115L270.897 108.149L274.475 109.938ZM271.038 114.938L268.057 112.27L271.038 114.938ZM265.913 118.812L267.641 122.42L267.671 122.405L267.701 122.39L265.913 118.812ZM241.85 111.062L238.353 113.005L238.369 113.034L238.386 113.063L241.85 111.062ZM246.038 84.0625L248.691 87.0553L248.707 87.0414L248.723 87.0273L246.038 84.0625ZM254.35 79.4375L253.127 75.6289L253.121 75.6311L253.114 75.6334L254.35 79.4375ZM276.288 105.25V71.5625H268.288V105.25H276.288ZM276.288 71.5625C276.288 68.9043 275.916 66.3798 274.907 64.2343L267.668 67.6407C267.992 68.3285 268.288 69.5541 268.288 71.5625H276.288ZM274.947 64.3229C273.989 62.1522 272.438 60.3845 270.264 59.2973L266.686 66.4527C267.012 66.6155 267.336 66.8895 267.628 67.5521L274.947 64.3229ZM270.407 59.3727C268.445 58.2898 266.208 57.875 263.913 57.875V65.875C265.284 65.875 266.089 66.1269 266.543 66.3773L270.407 59.3727ZM263.913 57.875C261.446 57.875 259.077 58.387 256.995 59.6231L261.08 66.5019C261.665 66.1547 262.546 65.875 263.913 65.875V57.875ZM256.947 59.6521C254.998 60.8469 253.498 62.5108 252.501 64.5674L259.699 68.0576C260.035 67.3642 260.494 66.8614 261.128 66.4729L256.947 59.6521ZM252.522 64.5236C251.533 66.5013 251.1 68.6741 251.1 70.9375H259.1C259.1 69.7009 259.333 68.7904 259.678 68.1014L252.522 64.5236ZM255.1 66.9375H240.538V74.9375H255.1V66.9375ZM244.538 70.9375C244.538 68.7797 244.966 66.7165 245.833 64.7154L238.492 61.5346C237.193 64.5335 236.538 67.6787 236.538 70.9375H244.538ZM245.81 64.7665C246.71 62.767 247.998 60.9656 249.715 59.352L244.235 53.523C241.785 55.826 239.865 58.483 238.515 61.4835L245.81 64.7665ZM249.715 59.352C251.378 57.7885 253.438 56.5103 255.959 55.5513L253.116 48.0737C249.721 49.3647 246.739 51.1699 244.235 53.523L249.715 59.352ZM255.959 55.5513C258.403 54.6222 261.204 54.125 264.413 54.125V46.125C260.371 46.125 256.589 46.7528 253.116 48.0737L255.959 55.5513ZM264.413 54.125C268.296 54.125 271.596 54.7776 274.388 55.9844L277.562 48.6406C273.604 46.9307 269.195 46.125 264.413 46.125V54.125ZM274.427 56.0008C276.997 57.0796 278.99 58.8094 280.479 61.3014L287.346 57.1986C285.002 53.2739 281.703 50.3787 277.523 48.6242L274.427 56.0008ZM280.51 61.3539C281.954 63.6887 282.85 67.0502 282.85 71.75H290.85C290.85 66.1164 289.787 61.1447 287.315 57.1461L280.51 61.3539ZM282.85 71.75V103.312H290.85V71.75H282.85ZM282.85 103.312C282.85 106.591 283.046 109.59 283.458 112.291L291.367 111.084C291.029 108.869 290.85 106.284 290.85 103.312H282.85ZM283.471 112.367C283.922 114.985 284.548 117.366 285.38 119.471L292.82 116.529C292.235 115.051 291.736 113.223 291.354 111.008L283.471 112.367ZM285.1 118V119H293.1V118H285.1ZM289.1 115H274.288V123H289.1V115ZM277.988 117.482C277.498 116.286 277.061 114.571 276.754 112.23L268.821 113.27C269.181 116.013 269.744 118.464 270.587 120.518L277.988 117.482ZM276.754 112.23C276.442 109.853 276.288 107.527 276.288 105.25H268.288C268.288 107.889 268.466 110.563 268.821 113.27L276.754 112.23ZM270.225 77.839L270.288 87.2765L278.287 87.2235L278.225 77.786L270.225 77.839ZM274.288 83.25H267.288V91.25H274.288V83.25ZM267.288 83.25C264.833 83.25 262.501 83.5936 260.341 84.3496L262.984 91.9004C264.157 91.4898 265.575 91.25 267.288 91.25V83.25ZM260.426 84.3209C258.296 85.0133 256.376 86.0629 254.748 87.5162L260.077 93.4838C260.782 92.8537 261.696 92.32 262.899 91.9291L260.426 84.3209ZM254.755 87.5104C253.167 88.9221 251.955 90.6429 251.111 92.6118L258.464 95.7632C258.87 94.8154 259.408 94.0779 260.07 93.4896L254.755 87.5104ZM251.074 92.7019C250.281 94.6838 249.913 96.7991 249.913 99H257.913C257.913 97.7009 258.127 96.6079 258.501 95.6731L251.074 92.7019ZM249.913 99C249.913 101.444 250.241 103.775 251.123 105.791L258.452 102.584C258.167 101.933 257.913 100.806 257.913 99H249.913ZM251.166 105.885C252.105 107.89 253.539 109.546 255.49 110.66L259.46 103.715C259.077 103.496 258.72 103.152 258.409 102.49L251.166 105.885ZM255.637 110.74C257.54 111.725 259.662 112.125 261.85 112.125V104.125C260.621 104.125 259.826 103.9 259.313 103.635L255.637 110.74ZM261.85 112.125C264.766 112.125 267.51 111.495 269.933 110.077L265.892 103.173C264.898 103.755 263.601 104.125 261.85 104.125V112.125ZM269.958 110.062C272.154 108.755 273.989 107.088 275.299 105.004L268.526 100.746C268.003 101.579 267.171 102.411 265.867 103.188L269.958 110.062ZM275.255 105.072C276.535 103.124 277.421 100.759 276.979 98.1954L269.096 99.5546C269.07 99.4081 269.206 99.7096 268.57 100.678L275.255 105.072ZM269.527 100.793L272.84 106.855L279.86 103.02L276.548 96.9571L269.527 100.793ZM272.436 104.113C272.193 105.268 271.714 106.588 270.932 108.081L278.018 111.794C279.069 109.787 279.841 107.773 280.264 105.762L272.436 104.113ZM270.897 108.149C270.194 109.555 269.256 110.929 268.057 112.27L274.018 117.605C275.652 115.779 277.006 113.82 278.053 111.726L270.897 108.149ZM268.057 112.27C266.994 113.458 265.696 114.448 264.124 115.235L267.701 122.39C270.129 121.177 272.248 119.583 274.018 117.605L268.057 112.27ZM264.184 115.205C262.814 115.862 261.111 116.25 258.975 116.25V124.25C262.089 124.25 265.011 123.68 267.641 122.42L264.184 115.205ZM258.975 116.25C255.755 116.25 253.043 115.582 250.738 114.348L246.962 121.402C250.573 123.334 254.612 124.25 258.975 124.25V116.25ZM250.738 114.348C248.449 113.124 246.656 111.387 245.314 109.062L238.386 113.063C240.46 116.655 243.334 119.46 246.962 121.402L250.738 114.348ZM245.347 109.12C244.074 106.829 243.35 103.944 243.35 100.312H235.35C235.35 105.014 236.293 109.296 238.353 113.005L245.347 109.12ZM243.35 100.312C243.35 97.3867 243.836 94.8479 244.74 92.6395L237.335 89.6105C235.989 92.9021 235.35 96.4883 235.35 100.312H243.35ZM244.74 92.6395C245.635 90.4521 246.944 88.6047 248.691 87.0553L243.384 81.0697C240.714 83.4369 238.69 86.2979 237.335 89.6105L244.74 92.6395ZM248.723 87.0273C250.445 85.4671 252.696 84.181 255.586 83.2416L253.114 75.6334C249.337 76.8607 246.046 78.6579 243.352 81.0977L248.723 87.0273ZM255.573 83.2461C258.463 82.3184 261.971 81.8125 266.163 81.8125V73.8125C261.354 73.8125 256.987 74.3899 253.127 75.6289L255.573 83.2461ZM266.163 81.8125H274.225V73.8125H266.163V81.8125ZM319.908 106.875L318.04 103.337L318.02 103.348L317.999 103.36L319.908 106.875ZM323.47 103.188L327.012 105.047L327.021 105.029L327.03 105.011L323.47 103.188ZM324.908 96.5625V92.5625H321.029L320.909 96.4395L324.908 96.5625ZM338.595 96.5625L342.594 96.6321L342.665 92.5625H338.595V96.5625ZM335.283 109.125L338.712 111.183L338.718 111.174L338.723 111.165L335.283 109.125ZM326.783 117.375L328.704 120.883L328.711 120.879L328.718 120.876L326.783 117.375ZM303.408 118.125L301.787 121.782L301.815 121.794L301.843 121.806L303.408 118.125ZM290.345 101.812L286.477 102.83L286.483 102.855L286.49 102.879L290.345 101.812ZM290.345 68.625L286.487 67.5691L286.482 67.588L286.477 67.607L290.345 68.625ZM303.408 52.3125L304.989 55.9867L305.008 55.9783L305.028 55.9697L303.408 52.3125ZM327.345 53.125L325.343 56.5877L325.367 56.6019L325.392 56.6157L327.345 53.125ZM338.595 75.6875V79.6875H342.656L342.595 75.6269L338.595 75.6875ZM324.908 75.6875L320.909 75.8017L321.02 79.6875H324.908V75.6875ZM323.595 68.375L319.876 69.8472L319.881 69.8607L319.887 69.8742L323.595 68.375ZM320.22 63.875L317.913 67.1429L317.935 67.1585L317.958 67.1739L320.22 63.875ZM308.97 63.75L310.985 67.2051L311 67.1967L311.014 67.1881L308.97 63.75ZM305.47 67.625L301.875 65.8713L301.857 65.9071L301.841 65.9432L305.47 67.625ZM303.783 73.875L299.819 73.3375L299.815 73.3666L299.811 73.3957L303.783 73.875ZM303.783 96.6875L299.81 97.1588L299.811 97.1668L303.783 96.6875ZM305.408 102.875L301.778 104.557L301.795 104.593L301.812 104.629L305.408 102.875ZM314.908 112.062C317.361 112.062 319.699 111.54 321.816 110.39L317.999 103.36C317.199 103.794 316.204 104.062 314.908 104.062V112.062ZM321.775 110.413C324.067 109.203 325.804 107.347 327.012 105.047L319.928 101.328C319.386 102.361 318.748 102.964 318.04 103.337L321.775 110.413ZM327.03 105.011C328.263 102.604 328.811 99.7585 328.906 96.6855L320.909 96.4395C320.837 98.7831 320.427 100.354 319.91 101.364L327.03 105.011ZM324.908 100.562H338.595V92.5625H324.908V100.562ZM334.596 96.4929C334.523 100.696 333.562 104.183 331.842 107.085L338.723 111.165C341.253 106.9 342.501 102.012 342.594 96.6321L334.596 96.4929ZM331.853 107.067C330.082 110.018 327.759 112.264 324.847 113.874L328.718 120.876C332.889 118.569 336.233 115.316 338.712 111.183L331.853 107.067ZM324.861 113.867C321.994 115.437 318.767 116.25 315.095 116.25V124.25C320.006 124.25 324.571 123.147 328.704 120.883L324.861 113.867ZM315.095 116.25C311.054 116.25 307.71 115.607 304.972 114.444L301.843 121.806C305.771 123.476 310.22 124.25 315.095 124.25V116.25ZM305.028 114.468C302.314 113.266 300.114 111.56 298.362 109.337L292.078 114.288C294.66 117.565 297.917 120.068 301.787 121.782L305.028 114.468ZM298.362 109.337C296.573 107.066 295.164 104.232 294.2 100.746L286.49 102.879C287.692 107.226 289.534 111.059 292.078 114.288L298.362 109.337ZM294.213 100.795C293.277 97.2371 292.783 93.0689 292.783 88.25H284.783C284.783 93.5978 285.33 98.4712 286.477 102.83L294.213 100.795ZM292.783 88.25V82.125H284.783V88.25H292.783ZM292.783 82.125C292.783 77.3509 293.277 73.2028 294.213 69.643L286.477 67.607C285.33 71.9639 284.783 76.8158 284.783 82.125H292.783ZM294.203 69.6809C295.169 66.1512 296.579 63.3015 298.362 61.038L292.078 56.087C289.528 59.3235 287.688 63.1821 286.487 67.5691L294.203 69.6809ZM298.362 61.038C300.106 58.824 302.294 57.1464 304.989 55.9867L301.826 48.6383C297.938 50.3119 294.667 52.801 292.078 56.087L298.362 61.038ZM305.028 55.9697C307.703 54.7845 311.003 54.125 315.033 54.125V46.125C310.145 46.125 305.695 46.9239 301.787 48.6553L305.028 55.9697ZM315.033 54.125C319.213 54.125 322.599 55.0009 325.343 56.5877L329.348 49.6623C325.175 47.2491 320.352 46.125 315.033 46.125V54.125ZM325.392 56.6157C328.163 58.1662 330.356 60.4437 331.979 63.5856L339.086 59.9144C336.793 55.4729 333.527 52.0005 329.298 49.6343L325.392 56.6157ZM331.979 63.5856C333.583 66.6927 334.519 70.6936 334.595 75.7481L342.595 75.6269C342.504 69.6814 341.398 64.3906 339.086 59.9144L331.979 63.5856ZM338.595 71.6875H324.908V79.6875H338.595V71.6875ZM328.906 75.5733C328.814 72.3497 328.327 69.4079 327.303 66.8758L319.887 69.8742C320.446 71.2588 320.835 73.192 320.909 75.8017L328.906 75.5733ZM327.314 66.9028C326.294 64.3246 324.728 62.1158 322.482 60.5761L317.958 67.1739C318.629 67.6342 319.313 68.4254 319.876 69.8472L327.314 66.9028ZM322.527 60.6071C320.283 59.0235 317.63 58.375 314.845 58.375V66.375C316.393 66.375 317.323 66.7265 317.913 67.1429L322.527 60.6071ZM314.845 58.375C311.977 58.375 309.255 58.9267 306.926 60.3119L311.014 67.1881C311.768 66.74 312.963 66.375 314.845 66.375V58.375ZM306.955 60.2949C304.707 61.606 303.021 63.5223 301.875 65.8713L309.065 69.3787C309.586 68.3111 310.233 67.644 310.985 67.2051L306.955 60.2949ZM301.841 65.9432C300.837 68.1082 300.19 70.6011 299.819 73.3375L307.746 74.4125C308.042 72.2322 308.519 70.5584 309.099 69.3068L301.841 65.9432ZM299.811 73.3957C299.496 76.0067 299.345 78.9215 299.345 82.125H307.345C307.345 79.1618 307.485 76.5766 307.754 74.3543L299.811 73.3957ZM299.345 82.125V88.25H307.345V82.125H299.345ZM299.345 88.25C299.345 91.5331 299.496 94.508 299.81 97.1588L307.755 96.2162C307.486 93.9504 307.345 91.3002 307.345 88.25H299.345ZM299.811 97.1668C300.139 99.8845 300.767 102.375 301.778 104.557L309.037 101.193C308.464 99.9579 308.009 98.3238 307.754 96.2082L299.811 97.1668ZM301.812 104.629C302.973 107.007 304.701 108.926 306.996 110.229L310.944 103.271C310.156 102.824 309.509 102.159 309.003 101.121L301.812 104.629ZM306.996 110.229C309.319 111.547 312.04 112.062 314.908 112.062V104.062C312.942 104.062 311.705 103.703 310.944 103.271L306.996 110.229ZM353.652 23H357.652V19H353.652V23ZM353.652 119V123H357.652V119H353.652ZM339.09 119H335.09V123H339.09V119ZM339.09 23V19H335.09V23H339.09ZM388.652 51.375L391.877 53.7423L396.552 47.375H388.652V51.375ZM364.652 84.0625L367.656 86.7037L367.773 86.5716L367.877 86.4298L364.652 84.0625ZM350.09 100.625L346.245 101.726L348.26 108.764L353.094 103.266L350.09 100.625ZM346.402 87.75L343.131 85.448L342.03 87.0124L342.557 88.8513L346.402 87.75ZM357.09 72.5625L360.361 74.8645L360.39 74.8232L360.418 74.7813L357.09 72.5625ZM371.215 51.375V47.375H369.074L367.887 49.1562L371.215 51.375ZM374.09 119L370.552 120.867L371.678 123H374.09V119ZM357.402 87.375L354.36 84.7777L352.598 86.8416L353.865 89.2417L357.402 87.375ZM366.527 76.6875L369.996 74.6947L367.169 69.7756L363.485 74.0902L366.527 76.6875ZM390.84 119V123H397.752L394.308 117.007L390.84 119ZM349.652 23V119H357.652V23H349.652ZM353.652 115H339.09V123H353.652V115ZM343.09 119V23H335.09V119H343.09ZM339.09 27H353.652V19H339.09V27ZM385.428 49.0077L361.428 81.6952L367.877 86.4298L391.877 53.7423L385.428 49.0077ZM361.649 81.4213L347.086 97.9838L353.094 103.266L367.656 86.7037L361.649 81.4213ZM353.935 99.5237L350.248 86.6487L342.557 88.8513L346.245 101.726L353.935 99.5237ZM349.674 90.052L360.361 74.8645L353.819 70.2605L343.131 85.448L349.674 90.052ZM360.418 74.7813L374.543 53.5938L367.887 49.1562L353.762 70.3437L360.418 74.7813ZM371.215 55.375H388.652V47.375H371.215V55.375ZM377.628 117.133L360.94 85.5083L353.865 89.2417L370.552 120.867L377.628 117.133ZM360.445 89.9723L369.57 79.2848L363.485 74.0902L354.36 84.7777L360.445 89.9723ZM363.059 78.6803L387.372 120.993L394.308 117.007L369.996 74.6947L363.059 78.6803ZM390.84 115H374.09V123H390.84V115Z" fill="#FF5C00"/>
</svg>
